<svg xmlns="http://www.w3.org/2000/svg" width="16" height="16" viewBox="0 0 16 16" fill="none">
<path d="M13.3125 7.75C13.276 8.15104 13.0573 8.36979 12.6562 8.40625H8.28125V12.7812C8.24479 13.1823 8.02604 13.401 7.625 13.4375C7.22396 13.401 7.00521 13.1823 6.96875 12.7812V8.40625H2.59375C2.19271 8.36979 1.97396 8.15104 1.9375 7.75C1.97396 7.34896 2.19271 7.13021 2.59375 7.09375H6.96875V2.71875C7.00521 2.31771 7.22396 2.09896 7.625 2.0625C8.02604 2.09896 8.24479 2.31771 8.28125 2.71875V7.09375H12.6562C13.0573 7.13021 13.276 7.34896 13.3125 7.75Z" fill="currentColor"/>
</svg>