<svg width="23" height="23" viewBox="0 0 23 23" fill="none" xmlns="http://www.w3.org/2000/svg">
<g clip-path="url(#clip0_10435_4977)">
<path d="M11.965 2.11499H11.0371V15.0708H11.965V2.11499Z" fill="#1B1F23"/>
<path d="M1.54005 12.7816L0.883911 13.4377L8.60538 21.1592L9.26152 20.5031L1.54005 12.7816Z" fill="#1B1F23"/>
<path d="M21.4595 12.7795L13.7302 20.5088L14.3864 21.1649L22.1156 13.4356L21.4595 12.7795Z" fill="#1B1F23"/>
<path d="M11.5011 15.5349C11.4 15.5349 11.299 15.502 11.215 15.4362C11.1754 15.4052 10.2347 14.6631 9.28558 13.4611C8.00908 11.8446 7.33435 10.1612 7.33435 8.59299C7.33435 7.02474 8.00908 5.34143 9.28558 3.72488C10.2347 2.52292 11.1754 1.78082 11.215 1.74982C11.383 1.61822 11.6192 1.61822 11.7872 1.74982C11.8267 1.78082 12.7674 2.52292 13.7166 3.72488C14.9931 5.34143 15.6678 7.02478 15.6678 8.59299C15.6678 10.1612 14.9931 11.8446 13.7166 13.4611C12.7674 14.6631 11.8268 15.4052 11.7872 15.4362C11.7032 15.5019 11.6021 15.5349 11.5011 15.5349ZM11.5011 2.72461C10.661 3.47371 8.26233 5.85306 8.26233 8.59299C8.26233 11.3329 10.6609 13.7121 11.5011 14.4613C12.3412 13.7122 14.7399 11.3329 14.7399 8.59299C14.7399 5.85306 12.3413 3.47384 11.5011 2.72461Z" fill="#1B1F23"/>
<path d="M7.9558 21.3433C6.57533 21.3433 4.1266 21.094 2.53794 19.5053C0.271967 17.2394 0.730788 13.2236 0.751456 13.0537C0.777185 12.8419 0.94417 12.6749 1.15603 12.6492C1.32589 12.6285 5.34169 12.1697 7.60766 14.4356C9.87358 16.7016 9.41476 20.7174 9.3941 20.8872C9.36837 21.0991 9.20138 21.2661 8.98952 21.2918C8.93878 21.298 8.54428 21.3433 7.9558 21.3433ZM1.64455 13.5422C1.59452 14.5382 1.61717 17.2723 3.19407 18.8492C4.77067 20.4258 7.50449 20.4487 8.50104 20.3987C8.55107 19.4027 8.52842 16.6686 6.95152 15.0917C5.37488 13.5151 2.64119 13.4924 1.64455 13.5422Z" fill="#1B1F23"/>
<path d="M15.0373 21.349C14.448 21.349 14.0533 21.3036 14.0025 21.2975C13.7906 21.2717 13.6237 21.1048 13.5979 20.8929C13.5773 20.7229 13.118 16.7032 15.3861 14.4351C17.6541 12.1671 21.6738 12.6264 21.8438 12.647C22.0557 12.6727 22.2226 12.8397 22.2484 13.0516C22.269 13.2216 22.7283 17.2413 20.4603 19.5093C18.8702 21.0994 16.4192 21.349 15.0373 21.349ZM14.491 20.4044C15.4878 20.4545 18.2253 20.432 19.8042 18.8532C21.3829 17.2744 21.4055 14.5371 21.3553 13.54C20.3586 13.49 17.6211 13.5124 16.0422 15.0912C14.4634 16.67 14.4409 19.4073 14.491 20.4044Z" fill="#1B1F23"/>
</g>
<defs>
<clipPath id="clip0_10435_4977">
<rect width="21.6" height="21.6" fill="white" transform="translate(0.699951 0.699951)"/>
</clipPath>
</defs>
</svg>
