<svg xmlns="http://www.w3.org/2000/svg" width="12" height="10" viewBox="0 0 12 10" fill="none">
<path d="M7.09821 0.182292L11.8125 4.55729C11.9375 4.67882 12 4.82639 12 5C12 5.17361 11.9375 5.32118 11.8125 5.44271L7.09821 9.81771C6.77679 10.0608 6.47321 10.0608 6.1875 9.81771C5.9375 9.50521 5.9375 9.21007 6.1875 8.93229L9.75 5.625H0.642857C0.25 5.59028 0.0357143 5.38194 0 5C0.0357143 4.61806 0.25 4.40972 0.642857 4.375H9.75L6.1875 1.06771C5.9375 0.789931 5.9375 0.494792 6.1875 0.182292C6.47321 -0.0607639 6.77679 -0.0607639 7.09821 0.182292Z" fill="#1B1F23"/>
</svg>