<svg xmlns="http://www.w3.org/2000/svg" width="12" height="10" viewBox="0 0 12 10" fill="none">
<path d="M4.90179 0.182292L0.1875 4.55729C0.0625 4.67882 0 4.82639 0 5C0 5.17361 0.0625 5.32118 0.1875 5.44271L4.90179 9.81771C5.22321 10.0608 5.52679 10.0608 5.8125 9.81771C6.0625 9.50521 6.0625 9.21007 5.8125 8.93229L2.25 5.625H11.3571C11.75 5.59028 11.9643 5.38194 12 5C11.9643 4.61806 11.75 4.40972 11.3571 4.375H2.25L5.8125 1.06771C6.0625 0.789931 6.0625 0.494792 5.8125 0.182292C5.52679 -0.0607639 5.22321 -0.0607639 4.90179 0.182292Z" fill="#1B1F23"/>
</svg>